<svg xmlns="http://www.w3.org/2000/svg" width="24" height="24" viewBox="0 0 24 24" fill="none" stroke="currentColor" stroke-width="2" stroke-linecap="round" stroke-linejoin="round">
  <path d="M19.439 7.85c-.049.322.059.648.289.878l1.568 1.568c.47.47.706 1.087.706 1.704s-.235 1.233-.706 1.704l-1.611 1.611a.98.98 0 0 1-.837.276c-.47-.07-.802-.48-.968-.925-.176-.479-.497-.831-.934-.994-.466-.173-.942-.109-1.272.221-.32.319-.428.783-.261 1.243a.98.98 0 0 1-.056.922c-.19.252-.512.45-.855.53l-2.23.522a1.64 1.64 0 0 1-.75 0l-2.23-.522a1.063 1.063 0 0 1-.74-.439 1.03 1.03 0 0 1-.171-1.012c.158-.424.067-.92-.242-1.228-.335-.336-.848-.426-1.261-.241a1.034 1.034 0 0 1-1.153-.208l-1.868-1.87C3.917 10.58 3.67 9.941 3.67 9.3c0-.642.247-1.28.732-1.769l1.521-1.522a1.09 1.09 0 0 1 1.079-.273c.435.13.901.097 1.242-.235.356-.347.489-.858.317-1.272-.159-.4 0-.796.407-1.02.387-.214.886-.104 1.2.21l1.913 1.912c.17.17.372.267.644.267 1.075 0 1.948.873 1.948 1.95 0 1.075-.873 1.948-1.95 1.948-.271 0-.529.097-.728.274l-1.913 1.913c-.321.321-.43.796-.216 1.137.232.415.156.906-.175 1.237-.342.342-.84.427-1.242.221-.478-.167-.919.027-1.178.49a.995.995 0 0 1-.921.298 1.006 1.006 0 0 1-.778-.586c-.116-.27-.171-.568-.171-.875 0-.641.247-1.279.732-1.769l1.521-1.522a1.09 1.09 0 0 1 1.079-.273c.435.13.901.097 1.242-.235.347-.338.489-.838.317-1.252-.168-.414.02-.89.456-1.115.414-.214.886-.104 1.2.21l1.913 1.912c.17.17.372.267.644.267a1.95 1.95 0 0 0 1.95-1.95 1.95 1.95 0 0 0-1.95-1.948c-.272 0-.548-.097-.729-.274l-1.913-1.912c-.313-.314-.423-.786-.209-1.2.224-.435.701-.624 1.116-.456.413.171.913.03 1.252-.318.332-.341.365-.807.235-1.242a1.09 1.09 0 0 1 .273-1.078l1.522-1.522c.489-.485 1.127-.732 1.769-.732s1.28.246 1.769.732l1.582 1.582c.231.232.557.34.879.287.414-.069.815-.022 1.102.265.286.286.334.687.265 1.102z"></path>
</svg> 