<svg xmlns="http://www.w3.org/2000/svg" width="120" height="40" viewBox="0 0 120 40" fill="none">
  <path d="M14.5 10C9.25329 10 5 14.2533 5 19.5C5 24.7467 9.25329 29 14.5 29C19.7467 29 24 24.7467 24 19.5C24 14.2533 19.7467 10 14.5 10ZM14.5 26C10.9163 26 8 23.0837 8 19.5C8 15.9163 10.9163 13 14.5 13C18.0837 13 21 15.9163 21 19.5C21 23.0837 18.0837 26 14.5 26Z" fill="white"/>
  <path d="M30 13H33V26H30V13Z" fill="white"/>
  <path d="M38 13H45C49.4183 13 53 16.5817 53 21C53 25.4183 49.4183 29 45 29H38V13ZM41 16V26H45C47.7614 26 50 23.7614 50 21C50 18.2386 47.7614 16 45 16H41Z" fill="white"/>
  <path d="M57 13H70V16H60V19H68V22H60V26H70V29H57V13Z" fill="white"/>
  <path d="M74 13H77V26H87V29H74V13Z" fill="white"/>
  <path d="M91 13H94V26H104V29H91V13Z" fill="white"/>
  <path d="M108 13H111V26H108V13ZM111.5 10C112.328 10 113 10.6716 113 11.5C113 12.3284 112.328 13 111.5 13C110.672 13 110 12.3284 110 11.5C110 10.6716 110.672 10 111.5 10Z" fill="white"/>
  <path d="M115 21C115 16.5817 118.582 13 123 13H124.5C128.918 13 132.5 16.5817 132.5 21C132.5 25.4183 128.918 29 124.5 29H123C118.582 29 115 25.4183 115 21ZM123 16C120.239 16 118 18.2386 118 21C118 23.7614 120.239 26 123 26H124.5C127.261 26 129.5 23.7614 129.5 21C129.5 18.2386 127.261 16 124.5 16H123Z" fill="white"/>
  <path d="M135 13H138V22.5C138 24.433 139.567 26 141.5 26H145.5C147.433 26 149 24.433 149 22.5V13H152V22.5C152 26.0899 149.09 29 145.5 29H141.5C137.91 29 135 26.0899 135 22.5V13Z" fill="white"/>
  <path d="M155.5 21C155.5 16.5817 159.082 13 163.5 13C167.918 13 171.5 16.5817 171.5 21C171.5 25.4183 167.918 29 163.5 29C159.082 29 155.5 25.4183 155.5 21ZM163.5 16C160.739 16 158.5 18.2386 158.5 21C158.5 23.7614 160.739 26 163.5 26C166.261 26 168.5 23.7614 168.5 21C168.5 18.2386 166.261 16 163.5 16Z" fill="white"/>
</svg> 