<svg xmlns="http://www.w3.org/2000/svg" width="120" height="40" viewBox="0 0 120 40" fill="none">
  <path d="M15 13H18V22.8C18 24.5673 19.4327 26 21.2 26H28.8C30.5673 26 32 24.5673 32 22.8V13H35V22.8C35 26.2242 32.2242 29 28.8 29H21.2C17.7758 29 15 26.2242 15 22.8V13Z" fill="white"/>
  <path d="M39 13H49C53.4183 13 57 16.5817 57 21C57 25.4183 53.4183 29 49 29H39V13ZM42 16V26H49C51.7614 26 54 23.7614 54 21C54 18.2386 51.7614 16 49 16H42Z" fill="white"/>
  <path d="M61 13H64V29H61V13Z" fill="white"/>
  <path d="M68 13H71V22.75C71 24.5449 72.4551 26 74.25 26H82.75C84.5449 26 86 24.5449 86 22.75V13H89V22.75C89 26.2057 86.2057 29 82.75 29H74.25C70.7943 29 68 26.2057 68 22.75V13Z" fill="white"/>
  <path d="M92 13H95V26H105V29H92V13Z" fill="white"/>
  <path d="M108 13H111V26H121V29H108V13Z" fill="white"/>
  <path d="M131 13H134V29H131V13ZM124 13H127V29H124V13ZM127.5 19H131.5V22H127.5V19Z" fill="white"/>
  <path d="M137 13H148V16H140V19H147V22H140V26H148V29H137V13Z" fill="white"/>
  <path d="M167 13H170V26H167V13ZM164 13H154C151.239 13 149 15.2386 149 18V24C149 26.7614 151.239 29 154 29H164C166.761 29 169 26.7614 169 24V18C169 15.2386 166.761 13 164 13ZM166 18V24C166 25.1046 165.105 26 164 26H154C152.895 26 152 25.1046 152 24V18C152 16.8954 152.895 16 154 16H164C165.105 16 166 16.8954 166 18Z" fill="white"/>
</svg> 