<svg xmlns="http://www.w3.org/2000/svg" width="120" height="40" viewBox="0 0 120 40" fill="none">
  <path d="M21 13H32C34.7614 13 37 15.2386 37 18V24C37 26.7614 34.7614 29 32 29H21C18.2386 29 16 26.7614 16 24V18C16 15.2386 18.2386 13 21 13Z" fill="white"/>
  <path d="M44 13H47V22.75C47 24.5449 48.4551 26 50.25 26H58.75C60.5449 26 62 24.5449 62 22.75V13H65V22.75C65 26.2057 62.2057 29 58.75 29H50.25C46.7943 29 44 26.2057 44 22.75V13Z" fill="white"/>
  <path d="M70 13H73V22.8889C73 24.6067 74.3933 26 76.1111 26H79.8889C81.6067 26 83 24.6067 83 22.8889V13H86V22.8889C86 26.2689 83.2689 29 79.8889 29H76.1111C72.7311 29 70 26.2689 70 22.8889V13Z" fill="white"/>
  <path d="M91 21C91 16.5817 94.5817 13 99 13C103.418 13 107 16.5817 107 21C107 25.4183 103.418 29 99 29C94.5817 29 91 25.4183 91 21ZM94 21C94 23.7614 96.2386 26 99 26C101.761 26 104 23.7614 104 21C104 18.2386 101.761 16 99 16C96.2386 16 94 18.2386 94 21Z" fill="white"/>
</svg> 